<svg width="27" height="27" viewBox="0 0 27 27" fill="none" xmlns="http://www.w3.org/2000/svg">
<g clip-path="url(#clip0_9_500)">
<path d="M14.5178 3.37083C14.1427 3.08955 13.6866 2.9375 13.2178 2.9375C12.749 2.9375 12.2928 3.08955 11.9178 3.37083L4.33444 9.05833C4.06535 9.26015 3.84694 9.52185 3.69651 9.8227C3.54609 10.1236 3.46777 10.4553 3.46777 10.7917V21.0833C3.46777 21.658 3.69605 22.2091 4.10238 22.6154C4.5087 23.0217 5.0598 23.25 5.63444 23.25H9.85944C10.1755 23.25 10.4786 23.1245 10.7021 22.901C10.9256 22.6775 11.0511 22.3744 11.0511 22.0583V16.75C11.0511 16.1754 11.2794 15.6243 11.6857 15.2179C12.092 14.8116 12.6431 14.5833 13.2178 14.5833C13.7924 14.5833 14.3435 14.8116 14.7498 15.2179C15.1562 15.6243 15.3844 16.1754 15.3844 16.75V22.0583C15.3844 22.3744 15.51 22.6775 15.7335 22.901C15.957 23.1245 16.2601 23.25 16.5761 23.25H20.8011C21.3757 23.25 21.9268 23.0217 22.3332 22.6154C22.7395 22.2091 22.9678 21.658 22.9678 21.0833V10.7917C22.9678 10.4553 22.8895 10.1236 22.739 9.8227C22.5886 9.52185 22.3702 9.26015 22.1011 9.05833L14.5178 3.37083Z" fill="white"/>
</g>
<defs>
<clipPath id="clip0_9_500">
<rect width="26" height="26" fill="white" transform="translate(0.217773 0.5)"/>
</clipPath>
</defs>
</svg>
