<svg width="25" height="25" viewBox="0 0 25 25" fill="none" xmlns="http://www.w3.org/2000/svg">
<path d="M19.9934 7.5C20.0471 7.19354 20.0331 6.87903 19.9523 6.57857C19.8716 6.2781 19.726 5.99895 19.5259 5.76071C19.3258 5.52248 19.0759 5.33093 18.7939 5.19951C18.5119 5.0681 18.2045 5 17.8934 5H6.9694C6.65827 5 6.35091 5.0681 6.06889 5.19951C5.78687 5.33093 5.53704 5.52248 5.33692 5.76071C5.1368 5.99895 4.99125 6.2781 4.91049 6.57857C4.82972 6.87903 4.8157 7.19354 4.8694 7.5M17.9314 5C17.9594 4.74 17.9744 4.611 17.9744 4.504C17.9755 4.00969 17.7935 3.5325 17.4635 3.16446C17.1335 2.79643 16.6789 2.56364 16.1874 2.511C16.0814 2.5 15.9514 2.5 15.6914 2.5H9.1714C8.9114 2.5 8.7804 2.5 8.6744 2.511C8.1829 2.56364 7.72831 2.79643 7.39832 3.16446C7.06833 3.5325 6.88632 4.00969 6.8874 4.504C6.8874 4.611 6.9014 4.741 6.9304 5" stroke="white" stroke-width="1.5"/>
<path d="M15.4314 18.5H9.4314" stroke="white" stroke-width="1.5" stroke-linecap="round"/>
<path d="M2.81548 14.293C2.36848 11.129 2.14548 9.548 3.09348 8.523C4.04148 7.5 5.72948 7.5 9.10348 7.5H15.7595C19.1335 7.5 20.8215 7.5 21.7695 8.524C22.7165 9.548 22.4935 11.129 22.0475 14.293L21.6255 17.293C21.2755 19.773 21.1005 21.014 20.2035 21.757C19.3065 22.5 17.9835 22.5 15.3365 22.5H9.52648C6.88048 22.5 5.55648 22.5 4.65948 21.757C3.76248 21.014 3.58748 19.774 3.23748 17.293L2.81548 14.293Z" stroke="white" stroke-width="1.5"/>
</svg>
