<svg width="18" height="20" viewBox="0 0 18 20" fill="none" xmlns="http://www.w3.org/2000/svg">
<path d="M1.75744 19.8766C0.795188 19.8766 0 19.071 0 18.1163V7.96487C0 7.05793 1.40625 7.05793 1.40625 7.96487V18.1163C1.40625 18.3848 1.70062 18.5548 1.93312 18.4205L16.1061 10.2378C16.3386 10.1036 16.3386 9.76355 16.1061 9.6294L1.93312 1.44671C1.70062 1.31246 1.40625 1.48243 1.40625 1.75093V4.02737C1.40625 4.9343 0 4.9343 0 4.02737V1.75093C0 0.425771 1.488 -0.434198 2.63625 0.228896L16.8092 8.41158C17.9569 9.0743 17.9573 10.7926 16.8092 11.4557L2.63625 19.6384C2.36109 19.7972 2.05922 19.8766 1.75744 19.8766Z" fill="#6D6D78"/>
</svg>
