<svg width="25" height="25" viewBox="0 0 25 25" fill="none" xmlns="http://www.w3.org/2000/svg">
<path d="M17.4961 7.25C17.4961 8.64239 16.943 9.97774 15.9584 10.9623C14.9738 11.9469 13.6385 12.5 12.2461 12.5C10.8537 12.5 9.51835 11.9469 8.53378 10.9623C7.54922 9.97774 6.99609 8.64239 6.99609 7.25C6.99609 5.85761 7.54922 4.52226 8.53378 3.53769C9.51835 2.55312 10.8537 2 12.2461 2C13.6385 2 14.9738 2.55312 15.9584 3.53769C16.943 4.52226 17.4961 5.85761 17.4961 7.25ZM15.9961 7.25C15.9961 6.25544 15.601 5.30161 14.8977 4.59835C14.1945 3.89509 13.2407 3.5 12.2461 3.5C11.2515 3.5 10.2977 3.89509 9.59444 4.59835C8.89118 5.30161 8.49609 6.25544 8.49609 7.25C8.49609 8.24456 8.89118 9.19839 9.59444 9.90165C10.2977 10.6049 11.2515 11 12.2461 11C13.2407 11 14.1945 10.6049 14.8977 9.90165C15.601 9.19839 15.9961 8.24456 15.9961 7.25ZM5.87109 14C5.1749 14 4.50722 14.2766 4.01494 14.7688C3.52266 15.2611 3.24609 15.9288 3.24609 16.625V17C3.24609 18.7948 4.38834 20.3127 6.00984 21.3447C7.64034 22.3827 9.84759 23 12.2461 23C14.6446 23 16.8511 22.3827 18.4823 21.3447C20.1038 20.3127 21.2461 18.7948 21.2461 17V16.625C21.2461 15.9288 20.9695 15.2611 20.4772 14.7688C19.985 14.2766 19.3173 14 18.6211 14H5.87109ZM4.74609 16.625C4.74609 16.3266 4.86462 16.0405 5.0756 15.8295C5.28658 15.6185 5.57273 15.5 5.87109 15.5H18.6211C18.9195 15.5 19.2056 15.6185 19.4166 15.8295C19.6276 16.0405 19.7461 16.3266 19.7461 16.625V17C19.7461 18.1047 19.0411 19.2118 17.6768 20.0795C16.3216 20.942 14.4038 21.5 12.2461 21.5C10.0883 21.5 8.17059 20.942 6.81534 20.0795C5.45034 19.2125 4.74609 18.104 4.74609 17V16.625Z" fill="white"/>
</svg>
