<svg width="25" height="26" viewBox="0 0 25 26" fill="none" xmlns="http://www.w3.org/2000/svg">
<path d="M12.5 0.5C5.6 0.5 0 6.1 0 13C0 19.9 5.6 25.5 12.5 25.5C19.4 25.5 25 19.9 25 13C25 6.1 19.4 0.5 12.5 0.5ZM12.5 23C6.9875 23 2.5 18.5125 2.5 13C2.5 7.4875 6.9875 3 12.5 3C18.0125 3 22.5 7.4875 22.5 13C22.5 18.5125 18.0125 23 12.5 23ZM5.625 19.875L15.0125 15.5125L19.375 6.125L9.9875 10.4875L5.625 19.875ZM12.5 11.625C13.2625 11.625 13.875 12.2375 13.875 13C13.875 13.7625 13.2625 14.375 12.5 14.375C11.7375 14.375 11.125 13.7625 11.125 13C11.125 12.2375 11.7375 11.625 12.5 11.625Z" fill="white"/>
</svg>
